<svg width="22" height="22" viewBox="0 0 31 31" fill="none" xmlns="http://www.w3.org/2000/svg">
<path d="M15.4857 0.916656C7.43574 0.916656 0.916992 7.44999 0.916992 15.5C0.916992 23.55 7.43574 30.0833 15.4857 30.0833C23.5503 30.0833 30.0837 23.55 30.0837 15.5C30.0837 7.44999 23.5503 0.916656 15.4857 0.916656ZM25.592 9.66666H21.2899C20.8232 7.84374 20.1524 6.09374 19.2774 4.47499C21.9607 5.39374 24.192 7.26041 25.592 9.66666ZM15.5003 3.89166C16.7107 5.64166 17.6587 7.58124 18.2857 9.66666H12.7149C13.342 7.58124 14.2899 5.64166 15.5003 3.89166ZM4.21283 18.4167C3.97949 17.4833 3.83366 16.5062 3.83366 15.5C3.83366 14.4937 3.97949 13.5167 4.21283 12.5833H9.14199C9.02533 13.5458 8.93783 14.5083 8.93783 15.5C8.93783 16.4917 9.02533 17.4542 9.14199 18.4167H4.21283ZM5.40866 21.3333H9.71074C10.1774 23.1562 10.8482 24.9062 11.7232 26.525C9.03991 25.6062 6.80866 23.7542 5.40866 21.3333ZM9.71074 9.66666H5.40866C6.80866 7.24582 9.03991 5.39374 11.7232 4.47499C10.8482 6.09374 10.1774 7.84374 9.71074 9.66666ZM15.5003 27.1083C14.2899 25.3583 13.342 23.4187 12.7149 21.3333H18.2857C17.6587 23.4187 16.7107 25.3583 15.5003 27.1083ZM18.9128 18.4167H12.0878C11.9566 17.4542 11.8545 16.4917 11.8545 15.5C11.8545 14.5083 11.9566 13.5312 12.0878 12.5833H18.9128C19.0441 13.5312 19.1462 14.5083 19.1462 15.5C19.1462 16.4917 19.0441 17.4542 18.9128 18.4167ZM19.2774 26.525C20.1524 24.9062 20.8232 23.1562 21.2899 21.3333H25.592C24.192 23.7396 21.9607 25.6062 19.2774 26.525ZM21.8587 18.4167C21.9753 17.4542 22.0628 16.4917 22.0628 15.5C22.0628 14.5083 21.9753 13.5458 21.8587 12.5833H26.7878C27.0212 13.5167 27.167 14.4937 27.167 15.5C27.167 16.5062 27.0212 17.4833 26.7878 18.4167H21.8587Z" fill="#23D4CE"/>
</svg>
