<svg viewbox='-0100 -0400 01000 01000' id='splashScreen'>
      <g id="svgGroup" stroke-linecap="round" fill-rule="evenodd" font-size="9pt" stroke="#000" stroke-width="0.25mm" fill="none" style="stroke:#000;stroke-width:0.25mm;fill:none">
        <path class='splashScreen_char fillChar' stroke='#5e5e5e'  d="M 97.2 103.05 L 84.15 108.3 L 72.45 78.3 L 23.85 78.3 L 12.15 108 L 0 103.05 L 41.1 1.8 L 56.7 1.8 L 97.2 103.05 Z M 48.15 15.9 L 28.35 66.3 L 67.8 66.3 L 48.15 15.9 Z" id="0" vector-effect="non-scaling-stroke"/>
        <path stroke='#5e5e5e' class='splashScreen_char fillChar' d="M 109.95 66.9 L 109.95 1.8 L 124.2 1.8 L 124.2 64.65 A 59.222 59.222 0 0 0 124.801 73.366 Q 125.492 78.005 126.98 81.77 A 26.483 26.483 0 0 0 130.35 87.9 Q 136.5 96.15 148.8 96.15 A 32.078 32.078 0 0 0 156.306 95.327 A 20.182 20.182 0 0 0 167.85 88.125 Q 172.557 82.13 173.747 71.991 A 63.063 63.063 0 0 0 174.15 64.65 L 174.15 1.8 L 187.95 1.8 L 187.95 66.3 A 59.936 59.936 0 0 1 187.017 77.147 A 42.995 42.995 0 0 1 183.075 89.025 A 35.387 35.387 0 0 1 174.646 99.894 A 33.642 33.642 0 0 1 169.425 103.575 Q 160.65 108.6 148.8 108.6 A 49.06 49.06 0 0 1 136.792 107.213 A 33.738 33.738 0 0 1 120.3 97.8 A 34.979 34.979 0 0 1 112.112 83.33 Q 110.49 77.898 110.085 71.372 A 72.145 72.145 0 0 1 109.95 66.9 Z" id="1" vector-effect="non-scaling-stroke"/>
        <path class='splashScreen_char fillChar' stroke='#5e5e5e'  d="M 247.2 106.8 L 232.95 106.8 L 232.95 14.4 L 200.7 14.4 L 200.7 1.8 L 279.45 1.8 L 279.45 14.4 L 247.2 14.4 L 247.2 106.8 Z" id="2" vector-effect="non-scaling-stroke"/>
        <path class='splashScreen_char' stroke='#5e5e5e' d="M 419.4 106.8 L 401.7 106.8 L 373.2 5.25 L 387.3 0.75 L 411 91.65 L 433.35 12.75 L 451.2 12.75 L 473.4 91.65 L 496.95 1.2 L 510.15 5.25 L 481.8 106.8 L 464.1 106.8 L 441.9 27.9 L 419.4 106.8 Z" id="5" vector-effect="non-scaling-stroke"/>
        <path class='splashScreen_char' stroke='#5e5e5e' d="M 604.35 103.05 L 591.3 108.3 L 579.6 78.3 L 531 78.3 L 519.3 108 L 507.15 103.05 L 548.25 1.8 L 563.85 1.8 L 604.35 103.05 Z M 555.3 15.9 L 535.5 66.3 L 574.95 66.3 L 555.3 15.9 Z" id="6" vector-effect="non-scaling-stroke"/>
        <path class='splashScreen_char' stroke='#5e5e5e' d="M 644.85 106.8 L 630.6 106.8 L 630.6 14.4 L 598.35 14.4 L 598.35 1.8 L 677.1 1.8 L 677.1 14.4 L 644.85 14.4 L 644.85 106.8 Z" id="7" vector-effect="non-scaling-stroke"/>
        <path class='splashScreen_char' stroke='#5e5e5e' d="M 683.1 97.95 L 690.3 85.95 Q 695.7 90.45 702.45 93.3 A 35.023 35.023 0 0 0 710.506 95.565 A 48.177 48.177 0 0 0 718.2 96.15 A 41.971 41.971 0 0 0 725.021 95.631 Q 728.655 95.031 731.597 93.74 A 20.551 20.551 0 0 0 735.3 91.65 Q 741.372 87.313 741.592 80.049 A 18.174 18.174 0 0 0 741.6 79.5 A 17.909 17.909 0 0 0 741.094 75.161 A 14.725 14.725 0 0 0 739.8 71.775 A 12.145 12.145 0 0 0 737.999 69.291 Q 736.095 67.22 732.876 65.207 A 38.715 38.715 0 0 0 732.825 65.175 Q 727.65 61.95 717.6 58.2 A 135.619 135.619 0 0 1 710.689 55.304 Q 704.583 52.531 700.35 49.725 Q 694.379 45.768 691.557 40.781 A 19.954 19.954 0 0 1 691.125 39.975 A 25 25 0 0 1 688.844 32.968 A 34.392 34.392 0 0 1 688.35 27 Q 688.35 19.5 692.475 13.425 A 25.767 25.767 0 0 1 699.155 6.769 A 35.078 35.078 0 0 1 704.625 3.675 Q 711.896 0.345 721.938 0.033 A 67.842 67.842 0 0 1 724.05 0 A 79.343 79.343 0 0 1 732.881 0.469 A 59.157 59.157 0 0 1 740.775 1.875 Q 748.2 3.75 755.25 7.2 L 750 19.35 A 47.243 47.243 0 0 0 743.811 16.322 A 62.529 62.529 0 0 0 738.075 14.325 Q 731.25 12.3 723.75 12.3 A 40.78 40.78 0 0 0 717.705 12.72 Q 714.507 13.2 711.9 14.23 A 18.925 18.925 0 0 0 708.15 16.2 A 14.852 14.852 0 0 0 704.905 19.147 A 11.039 11.039 0 0 0 702.45 26.25 A 15.697 15.697 0 0 0 702.889 30.033 A 12.843 12.843 0 0 0 704.1 33.15 Q 705.683 36.029 710.237 38.77 A 35.252 35.252 0 0 0 710.625 39 Q 714.697 41.381 722.169 44.284 A 195.022 195.022 0 0 0 725.25 45.45 A 121.843 121.843 0 0 1 732.718 48.494 Q 739.296 51.45 743.775 54.6 A 39.065 39.065 0 0 1 748.335 58.316 Q 750.705 60.587 752.29 63.02 A 21.345 21.345 0 0 1 753.45 65.025 A 26.368 26.368 0 0 1 756.062 73.819 A 33.233 33.233 0 0 1 756.3 77.85 A 32.565 32.565 0 0 1 755.299 86.101 A 25.657 25.657 0 0 1 751.425 94.5 A 29.427 29.427 0 0 1 741.028 103.534 A 36.535 36.535 0 0 1 737.925 105 A 45.782 45.782 0 0 1 726.81 108.006 A 60.041 60.041 0 0 1 718.2 108.6 A 71.05 71.05 0 0 1 706.537 107.681 A 57.073 57.073 0 0 1 698.25 105.675 Q 689.25 102.75 683.1 97.95 Z" id="8" vector-effect="non-scaling-stroke"/>
      </g>
      <image class='ball' href="https://www.freepnglogos.com/uploads/pokeball-png/image-pokeball-new-pose-battle-for-dream-island-28.png" x="-230" y="0" height="120px" width="120px">
        <animateMotion dur="1.5" repeatCount="1" begin="11s" path="M -76 -364 C 53 -397 155 -241 217 -131 C 229 -324 287 -204 300 -127 C 289 -324 360 -206 384 -130 C 384 -319 445 -214 501 -10"  fill="freeze" />
      </image> 
    </svg>